<?xml version="1.0" encoding="UTF-8"?>
<svg width="32" height="32" version="1.1" xmlns="http://www.w3.org/2000/svg">
 <path d="m26.6 28-3.58-3.59h-14.2q-2.87 0-4.85-1.93-1.98-1.93-1.98-4.79 0-2.52 1.59-4.28 1.59-1.77 4-2.17 0.0309-0.338 0.139-0.86 0.108-0.522 0.325-0.891l-5.1-5.07 1.45-1.41 23.7 23.6zm-17.8-6.02h11.8l-10.5-10.4q-0.309 0.399-0.402 0.921-0.0927 0.522-0.0927 0.983h-0.834q-1.82 0-3.11 1.17-1.28 1.17-1.28 2.98 0 1.81 1.28 3.09 1.28 1.27 3.11 1.27zm6.52-5.25m12.5 6.63-1.89-1.87q0.773-0.522 1.19-1.12 0.417-0.599 0.417-1.46 0-1.23-0.912-2.12-0.912-0.891-2.15-0.891h-2.26v-2.67q0-2.61-1.82-4.39-1.82-1.78-4.45-1.78-0.896 0-1.85 0.292-0.958 0.292-1.73 0.845l-1.73-1.72q1.11-0.921 2.5-1.38t2.78-0.461q3.49 0 6.04 2.44 2.55 2.44 2.67 5.91v0.645q2.29 0.123 3.82 1.61 1.53 1.49 1.53 3.7 0 1.17-0.556 2.44-0.556 1.27-1.61 1.98z" fill="#fff"/>
</svg>
