<svg width="1080" height="840" viewBox="0 0 1080 840" fill="none" xmlns="http://www.w3.org/2000/svg">
<g clip-path="url(#clip0_568_17162)">
<path d="M0 24H1080M0 48H1080M0 72H1080M0 96H1080M0 120H1080M0 144H1080M0 168H1080M0 192H1080M0 216H1080M0 240H1080M0 264H1080M0 288H1080M0 312H1080M0 336H1080M0 360H1080M0 384H1080M0 408H1080M0 432H1080M0 456H1080M0 480H1080M0 504H1080M0 528H1080M0 552H1080M0 576H1080M0 600H1080M0 624H1080M0 648H1080M0 672H1080M0 696H1080M0 720H1080M0 744H1080M0 768H1080M0 792H1080M0 816H1080M24 840V0M48 840V0M72 840V0M96 840V0M120 840V0M144 840V0M168 840V0M192 840V0M216 840V0M240 840V0M264 840V0M288 840V0M312 840V0M336 840V0M360 840V0M384 840V0M408 840V0M432 840V0M456 840V0M480 840V0M504 840V0M528 840V0M552 840V0M576 840V0M600 840V0M624 840V0M648 840V0M672 840V0M696 840V0M720 840V0M744 840V0M768 840V0M792 840V0M816 840V0M840 840V0M864 840V0M888 840V0M912 840V0M936 840V0M960 840V0M984 840V0M1008 840V0M1032 840V0M1056 840V0M0 0H1080V840H0V0Z" stroke="url(#paint0_radial_568_17162)" stroke-dasharray="2 3"/>
</g>
<defs>
<radialGradient id="paint0_radial_568_17162" cx="0" cy="0" r="1" gradientUnits="userSpaceOnUse" gradientTransform="translate(540 420) rotate(90) scale(420 540)">
<stop stop-color="#E0E2EB"/>
<stop offset="0.8" stop-color="#E0E2EB" stop-opacity="0"/>
</radialGradient>
<clipPath id="clip0_568_17162">
<rect width="1080" height="840" fill="white"/>
</clipPath>
</defs>
</svg>
